<svg xmlns="http://www.w3.org/2000/svg" width="24.9" height="24.9" viewBox="0 0 24.9 24.9">
  <path id="instagram" d="M12.452,0C9.067,0,8.646.017,7.321.073A9.265,9.265,0,0,0,4.3.652a6.107,6.107,0,0,0-2.2,1.439A6.037,6.037,0,0,0,.654,4.3a9.225,9.225,0,0,0-.58,3.024C.014,8.645,0,9.066,0,12.45s.017,3.806.073,5.131A9.288,9.288,0,0,0,.654,20.6a6.107,6.107,0,0,0,1.439,2.2,6.037,6.037,0,0,0,2.2,1.439,9.358,9.358,0,0,0,3.024.58c1.325.06,1.747.073,5.131.073s3.806-.017,5.131-.073a9.4,9.4,0,0,0,3.024-.58,6.107,6.107,0,0,0,2.2-1.439,6.005,6.005,0,0,0,1.439-2.2,9.358,9.358,0,0,0,.58-3.024c.06-1.325.073-1.747.073-5.131s-.017-3.806-.073-5.131A9.372,9.372,0,0,0,24.25,4.3a6.107,6.107,0,0,0-1.439-2.2,6.005,6.005,0,0,0-2.2-1.439,9.248,9.248,0,0,0-3.024-.58C16.258.012,15.837,0,12.452,0Zm0,2.241c3.324,0,3.721.017,5.035.073a6.894,6.894,0,0,1,2.31.43,3.883,3.883,0,0,1,1.435.932,3.837,3.837,0,0,1,.928,1.431,6.894,6.894,0,0,1,.43,2.31c.056,1.314.073,1.711.073,5.035s-.017,3.721-.077,5.035a7.1,7.1,0,0,1-.438,2.31,4.054,4.054,0,0,1-.933,1.435,3.928,3.928,0,0,1-1.435.928,6.9,6.9,0,0,1-2.318.43c-1.321.056-1.71.073-5.042.073s-3.721-.017-5.043-.077a7.164,7.164,0,0,1-2.318-.438,3.907,3.907,0,0,1-1.431-.933A3.741,3.741,0,0,1,2.7,19.779a6.958,6.958,0,0,1-.438-2.318c-.044-1.305-.066-1.71-.066-5.026s.021-3.721.066-5.042A6.962,6.962,0,0,1,2.7,5.074a3.653,3.653,0,0,1,.932-1.435,3.711,3.711,0,0,1,1.431-.933,6.945,6.945,0,0,1,2.306-.434c1.321-.048,1.71-.064,5.037-.064Zm0,3.818a6.392,6.392,0,1,0,6.392,6.392A6.389,6.389,0,0,0,12.452,6.06Zm0,10.542A4.151,4.151,0,1,1,16.6,12.451,4.148,4.148,0,0,1,12.452,16.6ZM20.6,5.8a1.495,1.495,0,1,1-1.5-1.492A1.5,1.5,0,0,1,20.6,5.8Z" transform="translate(-0.002)" fill="#fff"/>
</svg>
