<svg id="Group_126" data-name="Group 126" xmlns="http://www.w3.org/2000/svg" xmlns:xlink="http://www.w3.org/1999/xlink" width="73.802" height="65.237" viewBox="0 0 73.802 65.237">
  <defs>
    <clipPath id="clip-path">
      <rect id="Rectangle_10" data-name="Rectangle 10" width="73.802" height="65.237" fill="#fabd5d"/>
    </clipPath>
  </defs>
  <g id="Group_125" data-name="Group 125" clip-path="url(#clip-path)">
    <path id="Path_19" data-name="Path 19" d="M65.451,23.1H60.762V15.7a8.8,8.8,0,0,0-8.789-8.788H39.643a5.86,5.86,0,0,1-3.85-1.44l-3.929-3.42A8.355,8.355,0,0,0,26.381,0H8.789A8.8,8.8,0,0,0,0,8.787V55.122a10.127,10.127,0,0,0,9.583,10.1v.014H59.375a8.37,8.37,0,0,0,8.188-6.709l6.071-25.41.01-.048a8.352,8.352,0,0,0-8.194-9.97M2.489,55.122V8.787a6.308,6.308,0,0,1,6.3-6.3H26.382a5.863,5.863,0,0,1,3.85,1.441l3.929,3.419A8.35,8.35,0,0,0,39.643,9.4h12.33a6.309,6.309,0,0,1,6.3,6.3v7.4H57.092A6.821,6.821,0,0,0,50.4,17.533h-.411a6.941,6.941,0,0,0-6.816-5.686H14.561A8.361,8.361,0,0,0,6.209,20.2v41.47a7.628,7.628,0,0,1-3.72-6.546M50.4,20.02A4.33,4.33,0,0,1,54.537,23.1H33.41a8.321,8.321,0,0,0-8.121,6.4L17.55,56.829l-.014.052A7.617,7.617,0,0,1,15.8,60.208V25.884a5.87,5.87,0,0,1,5.864-5.864ZM8.7,62.614V20.2a5.871,5.871,0,0,1,5.864-5.864H43.17a4.449,4.449,0,0,1,4.265,3.2H21.669a8.361,8.361,0,0,0-8.352,8.352V62.049a7.644,7.644,0,0,1-4.62.565m62.512-30.05L65.138,57.972l-.01.049a5.878,5.878,0,0,1-5.753,4.728h-42.6a10.094,10.094,0,0,0,3.177-5.267l7.74-27.331L27.7,30.1a5.843,5.843,0,0,1,5.706-4.511h32.04a5.865,5.865,0,0,1,5.758,6.977Z" transform="translate(-0.001 0.001)" fill="#fabd5d"/>
  </g>
</svg>
