<svg id="Group_133" data-name="Group 133" xmlns="http://www.w3.org/2000/svg" xmlns:xlink="http://www.w3.org/1999/xlink" width="80.74" height="64.59" viewBox="0 0 80.74 64.59">
  <defs>
    <clipPath id="clip-path">
      <rect id="Rectangle_13" data-name="Rectangle 13" width="80.74" height="64.59" fill="#fabd5d"/>
    </clipPath>
  </defs>
  <g id="Group_132" data-name="Group 132" clip-path="url(#clip-path)">
    <path id="Path_23" data-name="Path 23" d="M18.834,0V0A18.826,18.826,0,0,0,9.018,34.9l1.114,4.45a5.682,5.682,0,0,0,1.222,2.465,3.772,3.772,0,0,0,2.77,1.251H14.8v2.681a2.718,2.718,0,0,0,2.694,2.691v4.5l-.72.72a2.718,2.718,0,0,0,0,3.808l3.8,3.8a2.718,2.718,0,0,0,3.808,0l.5-.5,3.367.841V61.9a2.716,2.716,0,0,0,2.691,2.691h5.383A2.718,2.718,0,0,0,39.019,61.9h2.691A2.716,2.716,0,0,0,44.4,64.59h5.385A2.716,2.716,0,0,0,52.479,61.9V61.6l3.359-.838.51.51a2.715,2.715,0,0,0,3.806,0l3.808-3.806a2.718,2.718,0,0,0,0-3.808l-.725-.725v-4.5a2.716,2.716,0,0,0,2.692-2.691V43.064H66.6a3.778,3.778,0,0,0,2.773-1.251A5.682,5.682,0,0,0,70.6,39.348l1.125-4.455A18.823,18.823,0,0,0,61.9,0a4.049,4.049,0,0,0-4.032,4.032,3.96,3.96,0,0,0,.468,1.837,13.437,13.437,0,0,0-7.512,20.6,1.346,1.346,0,0,0,2.216-1.53,10.763,10.763,0,1,1,8.86,4.66H55.835a4.008,4.008,0,0,0-3.511,2.234A16.143,16.143,0,0,1,54.437,4.511a1.347,1.347,0,1,0-1.254-2.384,18.836,18.836,0,0,0-1.1,32.787l1.112,4.434a5.681,5.681,0,0,0,1.222,2.465,3.778,3.778,0,0,0,2.773,1.251h.676v2.681a2.716,2.716,0,0,0,2.691,2.691v2.581a2.7,2.7,0,0,0-2.3.741l-3.808,3.806a2.72,2.72,0,0,0-.584,2.92l-1.416.353a2.713,2.713,0,0,0-2.655-2.323H44.4a2.716,2.716,0,0,0-2.691,2.692H39.019a2.718,2.718,0,0,0-2.694-2.692H30.943a2.713,2.713,0,0,0-2.655,2.323l-1.425-.355,0,0a2.72,2.72,0,0,0-.584-2.92l-3.8-3.8a2.692,2.692,0,0,0-2.3-.741V48.437a2.707,2.707,0,0,0,2.681-2.691V43.064h.676a3.778,3.778,0,0,0,2.773-1.251,5.7,5.7,0,0,0,1.23-2.465l1.1-4.439a18.836,18.836,0,0,0-1.1-32.782A1.346,1.346,0,1,0,26.3,4.514a16.149,16.149,0,0,1,2.108,27.326A4.011,4.011,0,0,0,24.892,29.6H18.834a10.768,10.768,0,1,1,0-21.536v.005A10.766,10.766,0,0,1,27.7,24.945a1.346,1.346,0,1,0,2.216,1.53A13.446,13.446,0,0,0,22.4,5.875a3.962,3.962,0,0,0,.468-1.84A4.051,4.051,0,0,0,18.834,0Zm0,2.694a1.34,1.34,0,1,1,0,2.681,13.461,13.461,0,1,0,0,26.921h6.058A1.314,1.314,0,0,1,26.1,34.015s-1.028,4.142-1.172,4.678-.552,1.68-1.39,1.68H14.124c-.911,0-1.289-1.3-1.39-1.68s-1.241-4.988-1.241-4.988a1.347,1.347,0,0,0-.647-.844A16.137,16.137,0,0,1,18.834,2.694m43.061,0a16.137,16.137,0,0,1,7.987,30.167,1.347,1.347,0,0,0-.647.844L68,38.693c-.255,1.026-.7,1.68-1.393,1.68H57.188c-.769,0-1.2-.921-1.393-1.68l-1.172-4.678A1.314,1.314,0,0,1,55.835,32.3H61.9a13.461,13.461,0,0,0,0-26.921,1.317,1.317,0,0,1-1.34-1.34,1.317,1.317,0,0,1,1.34-1.34M18.834,34.985a1.346,1.346,0,1,0,1.346,1.346,1.346,1.346,0,0,0-1.346-1.346m43.061,0a1.346,1.346,0,1,0,1.346,1.346A1.346,1.346,0,0,0,61.9,34.985m-44.4,8.079h2.691v2.681H17.494Zm43.061,0h2.681v2.681H60.555Zm-39.976,10.6,3.8,3.8-1.9,1.9-3.8-3.8Zm39.574,0,1.9,1.9L58.25,59.372l-1.9-1.9ZM30.943,59.2h5.383V61.9H30.943Zm13.459,0h5.385V61.9H44.4Z" fill="#fabd5d"/>
  </g>
</svg>
