<svg id="Group_124" data-name="Group 124" xmlns="http://www.w3.org/2000/svg" xmlns:xlink="http://www.w3.org/1999/xlink" width="58.667" height="73.333" viewBox="0 0 58.667 73.333">
  <defs>
    <clipPath id="clip-path">
      <rect id="Rectangle_9" data-name="Rectangle 9" width="58.667" height="73.333" fill="#fabd5d"/>
    </clipPath>
  </defs>
  <g id="Group_123" data-name="Group 123" clip-path="url(#clip-path)">
    <path id="Path_9" data-name="Path 9" d="M4.889,73.333H53.778a4.889,4.889,0,0,0,4.889-4.889V10.791a3.646,3.646,0,0,0-.312-1.467c-.01-.026-.026-.046-.038-.072A3.67,3.67,0,0,0,57.592,8.2L50.469,1.074A3.667,3.667,0,0,0,49.41.341c-.022-.01-.04-.024-.064-.033A3.638,3.638,0,0,0,47.877,0H4.889A4.889,4.889,0,0,0,0,4.889V68.444A4.889,4.889,0,0,0,4.889,73.333ZM54.494,8.555H52.556a2.444,2.444,0,0,1-2.444-2.444V4.173ZM2.444,4.889A2.444,2.444,0,0,1,4.889,2.444H47.667V6.111A4.889,4.889,0,0,0,52.556,11h3.667V68.444a2.444,2.444,0,0,1-2.444,2.444H4.889a2.444,2.444,0,0,1-2.444-2.444Z" transform="translate(0 0)" fill="#fabd5d"/>
    <path id="Path_10" data-name="Path 10" d="M54.867,101.312H62.2a3.667,3.667,0,0,0,3.667-3.667V90.818l3.309-3.309a1.222,1.222,0,0,0-1.728-1.728l-2.332,2.331A3.648,3.648,0,0,0,62.2,86.646H54.867A3.667,3.667,0,0,0,51.2,90.312v7.333A3.667,3.667,0,0,0,54.867,101.312Zm-1.222-11a1.222,1.222,0,0,1,1.222-1.222H62.2a1.215,1.215,0,0,1,1.137.8l-3.581,3.581-1.58-1.58a1.222,1.222,0,0,0-1.728,1.728l2.444,2.444a1.222,1.222,0,0,0,1.728,0l2.8-2.8v4.383A1.222,1.222,0,0,1,62.2,98.868H54.867a1.222,1.222,0,0,1-1.222-1.222Z" transform="translate(-43.867 -73.201)" fill="#fabd5d"/>
    <path id="Path_11" data-name="Path 11" d="M54.867,228H62.2a3.667,3.667,0,0,0,3.667-3.667V217a3.667,3.667,0,0,0-3.667-3.667H54.867A3.667,3.667,0,0,0,51.2,217v7.333A3.667,3.667,0,0,0,54.867,228m-1.222-11a1.222,1.222,0,0,1,1.222-1.222H62.2A1.222,1.222,0,0,1,63.422,217v7.333a1.222,1.222,0,0,1-1.222,1.222H54.867a1.222,1.222,0,0,1-1.222-1.222Z" transform="translate(-43.867 -182.778)" fill="#fabd5d"/>
    <path id="Path_12" data-name="Path 12" d="M54.867,347.467H62.2a3.667,3.667,0,0,0,3.667-3.667v-7.333A3.667,3.667,0,0,0,62.2,332.8H54.867a3.667,3.667,0,0,0-3.667,3.667V343.8a3.667,3.667,0,0,0,3.667,3.667m-1.222-11a1.222,1.222,0,0,1,1.222-1.222H62.2a1.222,1.222,0,0,1,1.222,1.222V343.8a1.222,1.222,0,0,1-1.222,1.222H54.867a1.222,1.222,0,0,1-1.222-1.222Z" transform="translate(-43.867 -285.133)" fill="#fabd5d"/>
    <path id="Path_13" data-name="Path 13" d="M197.489,113.377h20.778a1.222,1.222,0,0,0,0-2.444H197.489a1.222,1.222,0,0,0,0,2.444" transform="translate(-168.156 -95.044)" fill="#fabd5d"/>
    <path id="Path_14" data-name="Path 14" d="M197.489,156.044h12.222a1.222,1.222,0,1,0,0-2.444H197.489a1.222,1.222,0,0,0,0,2.444" transform="translate(-168.156 -131.6)" fill="#fabd5d"/>
    <path id="Path_15" data-name="Path 15" d="M197.489,232.844h20.778a1.222,1.222,0,0,0,0-2.444H197.489a1.222,1.222,0,0,0,0,2.444" transform="translate(-168.156 -197.4)" fill="#fabd5d"/>
    <path id="Path_16" data-name="Path 16" d="M197.489,275.51h12.222a1.222,1.222,0,1,0,0-2.444H197.489a1.222,1.222,0,0,0,0,2.444" transform="translate(-168.156 -233.955)" fill="#fabd5d"/>
    <path id="Path_17" data-name="Path 17" d="M197.489,352.31h20.778a1.222,1.222,0,0,0,0-2.444H197.489a1.222,1.222,0,0,0,0,2.444" transform="translate(-168.156 -299.755)" fill="#fabd5d"/>
    <path id="Path_18" data-name="Path 18" d="M197.489,394.977h12.222a1.222,1.222,0,1,0,0-2.444H197.489a1.222,1.222,0,0,0,0,2.444" transform="translate(-168.156 -336.311)" fill="#fabd5d"/>
  </g>
</svg>
