<svg xmlns="http://www.w3.org/2000/svg" width="19.032" height="21.905" viewBox="0 0 19.032 21.905">
  <path id="tiktok" d="M12.365.018C13.56,0,14.747.011,15.934,0a5.684,5.684,0,0,0,1.6,3.808A6.445,6.445,0,0,0,21.4,5.441V9.116a9.7,9.7,0,0,1-3.834-.884,11.081,11.081,0,0,1-1.479-.849c-.006,2.667.011,5.331-.017,7.987a6.951,6.951,0,0,1-1.234,3.6,6.794,6.794,0,0,1-5.394,2.927,6.641,6.641,0,0,1-3.722-.937,6.874,6.874,0,0,1-3.33-5.213q-.036-.679-.011-1.358a6.878,6.878,0,0,1,7.968-6.1c.018,1.352-.035,2.7-.035,4.055a3.14,3.14,0,0,0-4,1.936,3.633,3.633,0,0,0-.124,1.468A3.116,3.116,0,0,0,11.91,16.9a2.148,2.148,0,0,0,.374-.97c.089-1.633.054-3.259.065-4.891.007-3.68-.011-7.349.017-11.017Z" transform="translate(-2.368)" fill="#fff"/>
</svg>
